<svg width="600" height="400" viewBox="0 0 600 400" xmlns="http://www.w3.org/2000/svg"><path fill="red" d="M3.4 9.9L3.4 9.9L3.4 15.0L1.0 15.0L1.0 3.3L3.3 3.3L3.3 7.8L3.4 7.8Q3.7 7.0 4.4 6.6Q5.0 6.1 6.0 6.1L6.0 6.1Q6.9 6.1 7.6 6.5Q8.3 6.9 8.7 7.7Q9.1 8.4 9.0 9.4L9.0 9.4L9.0 15.0L6.6 15.0L6.6 9.9Q6.6 9.0 6.2 8.6Q5.8 8.1 5.1 8.1L5.1 8.1Q4.6 8.1 4.2 8.4Q3.8 8.6 3.6 9.0Q3.4 9.4 3.4 9.9ZM14.9 15.1L14.9 15.1Q13.6 15.1 12.6 14.6Q11.6 14.0 11.1 13.0Q10.6 12.0 10.6 10.7L10.6 10.7Q10.6 9.3 11.1 8.3Q11.6 7.3 12.6 6.7Q13.6 6.1 14.8 6.1L14.8 6.1Q15.7 6.1 16.4 6.4Q17.2 6.7 17.8 7.2Q18.3 7.8 18.6 8.6Q18.9 9.5 18.9 10.6L18.9 10.6L18.9 11.2L11.6 11.2L11.6 9.7L16.7 9.7Q16.7 9.2 16.4 8.8Q16.2 8.4 15.8 8.2Q15.4 7.9 14.9 7.9L14.9 7.9Q14.3 7.9 13.9 8.2Q13.5 8.4 13.2 8.9Q13 9.3 13.0 9.8L13.0 9.8L13.0 11.2Q13.0 11.9 13.2 12.4Q13.5 12.8 13.9 13.1Q14.4 13.3 15.0 13.3L15.0 13.3Q15.4 13.3 15.7 13.2Q16.0 13.1 16.3 12.9Q16.5 12.7 16.6 12.3L16.6 12.3L18.9 12.5Q18.7 13.3 18.2 13.9Q17.7 14.5 16.8 14.8Q16.0 15.1 14.9 15.1ZM20.5 3.3L22.9 3.3L22.9 15.0L20.5 15.0L20.5 3.3ZM24.9 3.3L27.3 3.3L27.3 15.0L24.9 15.0L24.9 3.3ZM33.2 15.1L33.2 15.1Q31.8 15.1 30.9 14.6Q29.9 14.0 29.4 13.0Q28.9 12.0 28.9 10.6L28.9 10.6Q28.9 9.3 29.4 8.3Q29.9 7.3 30.9 6.7Q31.8 6.1 33.2 6.1L33.2 6.1Q34.5 6.1 35.5 6.7Q36.4 7.3 36.9 8.3Q37.5 9.3 37.5 10.6L37.5 10.6Q37.5 12.0 36.9 13.0Q36.4 14.0 35.5 14.6Q34.5 15.1 33.2 15.1ZM33.2 13.3L33.2 13.3Q33.8 13.3 34.2 12.9Q34.6 12.6 34.8 12.0Q35 11.4 35 10.6L35 10.6Q35 9.9 34.8 9.3Q34.6 8.7 34.2 8.3Q33.8 8.0 33.2 8.0L33.2 8.0Q32.6 8.0 32.2 8.3Q31.7 8.7 31.5 9.3Q31.3 9.9 31.3 10.6L31.3 10.6Q31.3 11.4 31.5 12.0Q31.7 12.6 32.2 12.9Q32.6 13.3 33.2 13.3ZM39.7 13.4L41.7 13.4L41.6 14.0Q41.5 14.8 41.3 15.5Q41.1 16.3 40.9 16.9Q40.7 17.5 40.5 17.8L40.5 17.8L39.0 17.8Q39.1 17.5 39.2 16.9Q39.3 16.3 39.5 15.5Q39.6 14.8 39.6 14.0L39.6 14.0L39.7 13.4Z M50.1 15.1L50.1 15.1Q49.2 15.1 48.6 14.8Q47.9 14.6 47.6 14.0Q47.2 13.4 47.2 12.5L47.2 12.5Q47.2 11.8 47.5 11.3Q47.7 10.8 48.2 10.5Q48.6 10.2 49.2 10.1Q49.8 9.9 50.5 9.9L50.5 9.9Q51.2 9.8 51.7 9.7Q52.2 9.6 52.4 9.5Q52.6 9.3 52.6 9.1L52.6 9.1L52.6 9.0Q52.6 8.5 52.2 8.2Q51.9 7.9 51.3 7.9L51.3 7.9Q50.6 7.9 50.2 8.2Q49.9 8.5 49.7 8.9L49.7 8.9L47.5 8.7Q47.7 7.9 48.2 7.3Q48.7 6.8 49.5 6.5Q50.2 6.1 51.3 6.1L51.3 6.1Q52.0 6.1 52.7 6.3Q53.4 6.5 53.9 6.8Q54.4 7.2 54.7 7.8Q55.0 8.3 55.0 9.1L55.0 9.1L55.0 15.0L52.7 15.0L52.7 13.8L52.6 13.8Q52.4 14.2 52.1 14.5Q51.7 14.8 51.2 15.0Q50.7 15.1 50.1 15.1ZM50.8 13.5L50.8 13.5Q51.3 13.5 51.7 13.3Q52.1 13.0 52.4 12.7Q52.6 12.3 52.6 11.9L52.6 11.9L52.6 10.9Q52.5 11.0 52.3 11.1Q52.1 11.1 51.8 11.2Q51.6 11.2 51.4 11.3Q51.1 11.3 50.9 11.3L50.9 11.3Q50.5 11.4 50.2 11.5Q49.9 11.7 49.7 11.9Q49.5 12.1 49.5 12.5L49.5 12.5Q49.5 13.0 49.9 13.2Q50.2 13.5 50.8 13.5ZM59.4 15.1L59.4 15.1Q58.5 15.1 57.9 14.8Q57.2 14.6 56.8 14.0Q56.5 13.4 56.5 12.5L56.5 12.5Q56.5 11.8 56.7 11.3Q57.0 10.8 57.5 10.5Q57.9 10.2 58.5 10.1Q59.1 9.9 59.7 9.9L59.7 9.9Q60.5 9.8 61.0 9.7Q61.4 9.6 61.7 9.5Q61.9 9.3 61.9 9.1L61.9 9.1L61.9 9.0Q61.9 8.5 61.5 8.2Q61.2 7.9 60.6 7.9L60.6 7.9Q59.9 7.9 59.5 8.2Q59.1 8.5 59.0 8.9L59.0 8.9L56.8 8.7Q56.9 7.9 57.4 7.3Q57.9 6.8 58.7 6.5Q59.5 6.1 60.6 6.1L60.6 6.1Q61.3 6.1 62.0 6.3Q62.6 6.5 63.2 6.8Q63.7 7.2 64.0 7.8Q64.3 8.3 64.3 9.1L64.3 9.1L64.3 15.0L62.0 15.0L62.0 13.8L61.9 13.8Q61.7 14.2 61.4 14.5Q61.0 14.8 60.5 15.0Q60.0 15.1 59.4 15.1ZM60.1 13.5L60.1 13.5Q60.6 13.5 61.0 13.3Q61.4 13.0 61.6 12.7Q61.9 12.3 61.9 11.9L61.9 11.9L61.9 10.9Q61.8 11.0 61.6 11.1Q61.4 11.1 61.1 11.2Q60.9 11.2 60.6 11.3Q60.4 11.3 60.2 11.3L60.2 11.3Q59.8 11.4 59.5 11.5Q59.1 11.7 59.0 11.9Q58.8 12.1 58.8 12.5L58.8 12.5Q58.8 13.0 59.1 13.2Q59.5 13.5 60.1 13.5ZM68.7 15.1L68.7 15.1Q67.8 15.1 67.2 14.8Q66.5 14.6 66.1 14.0Q65.8 13.4 65.8 12.5L65.8 12.5Q65.8 11.8 66.0 11.3Q66.3 10.8 66.7 10.5Q67.2 10.2 67.8 10.1Q68.4 9.9 69.0 9.9L69.0 9.9Q69.8 9.8 70.3 9.7Q70.7 9.6 70.9 9.5Q71.1 9.3 71.1 9.1L71.1 9.1L71.1 9.0Q71.1 8.5 70.8 8.2Q70.5 7.9 69.9 7.9L69.9 7.9Q69.2 7.9 68.8 8.2Q68.4 8.5 68.3 8.9L68.3 8.9L66.1 8.7Q66.2 7.9 66.7 7.3Q67.2 6.8 68.0 6.5Q68.8 6.1 69.9 6.1L69.9 6.1Q70.6 6.1 71.3 6.3Q71.9 6.5 72.4 6.8Q73.0 7.2 73.3 7.8Q73.6 8.3 73.6 9.1L73.6 9.1L73.6 15.0L71.3 15.0L71.3 13.8L71.2 13.8Q71.0 14.2 70.6 14.5Q70.3 14.8 69.8 15.0Q69.3 15.1 68.7 15.1ZM69.3 13.5L69.3 13.5Q69.9 13.5 70.3 13.3Q70.7 13.0 70.9 12.7Q71.2 12.3 71.2 11.9L71.2 11.9L71.2 10.9Q71.1 11.0 70.9 11.1Q70.7 11.1 70.4 11.2Q70.2 11.2 69.9 11.3Q69.7 11.3 69.5 11.3L69.5 11.3Q69.1 11.4 68.7 11.5Q68.4 11.7 68.2 11.9Q68.1 12.1 68.1 12.5L68.1 12.5Q68.1 13.0 68.4 13.2Q68.8 13.5 69.3 13.5Z "/></svg>