<svg xmlns="http://www.w3.org/2000/svg" width="1200" height="630">
<path fill="#282828" d="M0 0h1200v630H0z"/>
<clipPath id="a">
<path d="M198 167h200v200H198z"/>
</clipPath>
<mask id="b">
<path fill="#fff" d="M198 167h200v200H198z"/>
</mask>
<image width="200" height="200" x="198" y="167" clip-path="url(#a)" href="data:image/svg+xml;utf8,%3Csvg version=%221.1%22 xmlns=%22http://www.w3.org/2000/svg%22 width=%22200.009457441513%22 height=%22200%22 viewBox=%2276.58987244897958 44 164.00775510204068 164%22%3E%3Cpath d=%22M237.6 95L187.6 95L187.6 45L237.6 45L237.6 95Z%22 id=%22arNRoK435%22 fill=%22%23d4be98%22 opacity=%221%22 fill-opacity=%221%22%3E%3C/path%3E%3Cpath d=%22M182.59 95L132.59 95L132.59 45L182.59 45L182.59 95Z%22 id=%22a3H2WU7Px%22 fill=%22%23d4be98%22 opacity=%221%22 fill-opacity=%221%22%3E%3C/path%3E%3Cpath d=%22M127.59 95L77.59 95L77.59 45L127.59 45L127.59 95Z%22 id=%22b1DInM56vl%22 fill=%22%23d4be98%22 opacity=%221%22 fill-opacity=%221%22%3E%3C/path%3E%3Cpath d=%22M237.6 150L187.6 150L187.6 100L237.6 100L237.6 150Z%22 id=%22a7LFlgQIwu%22 fill=%22%23d4be98%22 opacity=%221%22 fill-opacity=%221%22%3E%3C/path%3E%3Cpath d=%22M182.59 150L132.59 150L132.59 100L182.59 100L182.59 150Z%22 id=%22amwLiZcuo%22 fill=%22%237c6f64%22 opacity=%221%22 fill-opacity=%221%22%3E%3C/path%3E%3Cpath d=%22M182.59 205L132.59 205L132.59 155L182.59 155L182.59 205Z%22 id=%22f3Peu5RWan%22 fill=%22%237c6f64%22 opacity=%221%22 fill-opacity=%221%22%3E%3C/path%3E%3Cpath d=%22M237.6 205L187.6 205L187.6 155L237.6 155L237.6 205Z%22 id=%22a6DXBfqPa%22 fill=%22%237c6f64%22 opacity=%221%22 fill-opacity=%221%22%3E%3C/path%3E%3Cpath d=%22M127.59 205L77.59 205L77.59 155L127.59 155L127.59 205Z%22 id=%22c1GWSTH1z7%22 fill=%22%237c6f64%22 opacity=%221%22 fill-opacity=%221%22%3E%3C/path%3E%3C/svg%3E" mask="url(#b)" preserveAspectRatio="none"/>
<path fill="#d4be98" d="M202.9 458.2h-12.1v-60h12v7.4h.5q.8-1.8 2.3-3.6 1.5-1.9 4-3.1 2.5-1.2 6.1-1.2 4.8 0 8.8 2.5 4.1 2.4 6.5 7.4 2.4 5 2.4 12.5 0 7.3-2.4 12.3-2.3 5-6.3 7.6-4 2.6-9 2.6-3.5 0-6-1.2-2.4-1.1-4-2.9-1.6-1.8-2.4-3.6h-.4v23.3Zm-.2-38.1q0 3.9 1.1 6.8 1 2.8 3.1 4.5 2 1.6 5 1.6 2.9 0 5-1.7 2-1.6 3.1-4.5 1-2.9 1-6.7 0-3.8-1-6.7-1.1-2.9-3.1-4.5-2.1-1.6-5-1.6-3 0-5 1.6-2.1 1.5-3.1 4.4-1.1 2.9-1.1 6.8Zm50.8-3.4v25.2h-12.1v-43.7H253v7.7h.5q1.4-3.8 4.8-6t8.3-2.2q4.5 0 7.9 2 3.4 2 5.3 5.6 1.9 3.7 1.9 8.8v27.8h-12.1v-25.6q0-4.1-2.1-6.3-2.1-2.3-5.7-2.3-2.4 0-4.3 1.1-1.9 1-2.9 3t-1.1 4.9Zm49.8 41.5h-12.1v-60h11.9v7.4h.5q.8-1.8 2.4-3.6 1.5-1.9 3.9-3.1 2.5-1.2 6.2-1.2 4.7 0 8.8 2.5 4 2.4 6.4 7.4 2.4 5 2.4 12.5 0 7.3-2.3 12.3-2.4 5-6.4 7.6-4 2.6-9 2.6-3.5 0-6-1.2-2.4-1.1-4-2.9-1.5-1.8-2.4-3.6h-.3v23.3Zm-.3-38.1q0 3.9 1.1 6.8 1.1 2.8 3.1 4.5 2.1 1.6 5 1.6t5-1.7q2-1.6 3.1-4.5t1.1-6.7q0-3.8-1.1-6.7-1-2.9-3.1-4.5-2-1.6-5-1.6t-5 1.6q-2 1.5-3.1 4.4-1.1 2.9-1.1 6.8Zm50.9 21.8h-12.1v-43.7h11.5v7.7h.5q1.4-3.8 4.6-6 3.1-2.2 7.6-2.2t7.6 2.2q3.2 2.2 4.2 6h.5q1.3-3.7 4.8-6 3.5-2.2 8.3-2.2 6.1 0 10 3.9 3.8 3.8 3.8 10.9v29.4h-12.1v-27q0-3.6-1.9-5.4-2-1.9-4.9-1.9-3.3 0-5.1 2.1-1.8 2.1-1.8 5.5v26.7h-11.8v-27.2q0-3.2-1.8-5.1-1.8-2-4.8-2-2 0-3.7 1.1-1.6 1-2.5 2.8-.9 1.8-.9 4.2v26.2ZM448.3 214.9h15.4v72.7h-15.4v-72.7Zm42.9 41.2v31.5h-15.1v-54.5h14.4v9.6h.6q1.9-4.8 6.1-7.6 4.3-2.8 10.4-2.8 5.6 0 9.9 2.5 4.2 2.5 6.5 7.1 2.4 4.6 2.4 11v34.7h-15.2v-32q.1-5-2.5-7.9-2.6-2.8-7.1-2.8-3.1 0-5.4 1.3-2.4 1.3-3.6 3.8-1.3 2.6-1.4 6.1Zm92.5-7.5-13.9.9q-.3-1.8-1.5-3.3-1.2-1.4-3.1-2.3-1.9-.8-4.5-.8-3.5 0-6 1.4-2.4 1.5-2.4 4 0 1.9 1.6 3.3 1.6 1.3 5.4 2.1l9.8 2q8 1.7 11.9 5.3 3.9 3.6 3.9 9.5 0 5.4-3.1 9.4-3.2 4.1-8.6 6.3-5.5 2.3-12.6 2.3-10.8 0-17.2-4.6-6.4-4.5-7.5-12.3l14.8-.8q.7 3.3 3.3 5 2.6 1.8 6.6 1.8 4 0 6.5-1.6 2.4-1.5 2.4-4 0-2-1.7-3.4-1.7-1.3-5.3-2l-9.4-1.9q-8-1.6-11.9-5.5-3.9-4-3.9-10.1 0-5.2 2.9-9 2.8-3.8 8-5.9 5.2-2.1 12.2-2.1 10.4 0 16.3 4.4 6 4.4 7 11.9Zm6.9-15.5h32.9v11.3h-32.9v-11.3Zm7.5 39.7V220h15.1v50.8q0 2.1.6 3.3.7 1.1 1.8 1.6 1.2.5 2.7.5 1.1 0 2.1-.2 1.1-.2 1.7-.3l2.4 11.2q-1.2.4-3.2.9-2.1.4-5 .5-5.5.3-9.6-1.4t-6.4-5.2q-2.3-3.5-2.2-8.9Zm50.8 15.8q-5.3 0-9.4-1.8-4-1.8-6.4-5.4-2.4-3.6-2.4-9 0-4.6 1.7-7.7 1.7-3.1 4.6-4.9 2.8-1.9 6.5-2.9 3.7-.9 7.7-1.3 4.8-.5 7.7-1 2.9-.4 4.2-1.3 1.3-.9 1.3-2.6v-.2q0-3.4-2.1-5.3-2.1-1.8-6-1.8-4 0-6.5 1.8-2.4 1.8-3.1 4.5l-14-1.2q1-4.9 4.2-8.6 3.1-3.6 8-5.6 5-2 11.5-2 4.6 0 8.7 1.1 4.2 1.1 7.5 3.3 3.2 2.3 5.1 5.7 1.9 3.5 1.9 8.4v36.8h-14.4V280h-.4q-1.3 2.6-3.5 4.5-2.2 2-5.3 3-3.1 1.1-7.1 1.1Zm4.3-10.4q3.3 0 5.9-1.3 2.5-1.4 4-3.6 1.4-2.3 1.4-5.2v-5.8q-.7.5-1.9.9-1.2.3-2.7.6-1.6.3-3.1.6-1.5.2-2.8.4-2.6.4-4.6 1.2-2 .9-3.1 2.3t-1.1 3.6q0 3.1 2.3 4.7 2.2 1.6 5.7 1.6Zm38.1-63.3h15.2v72.7h-15.2v-72.7Zm27.2 0h15.2v72.7h-15.2v-72.7ZM463.7 408.6h-15.4v-72.7H477q8.3 0 14.1 2.9 5.8 3 8.9 8.3 3.1 5.3 3.1 12.6 0 7.2-3.1 12.4-3.2 5.2-9.1 8-5.9 2.7-14.3 2.7h-19.2v-12.3h16.7q4.4 0 7.4-1.2 2.9-1.2 4.3-3.6 1.4-2.5 1.4-6 0-3.7-1.4-6.2-1.4-2.4-4.4-3.7-2.9-1.3-7.3-1.3h-10.4v60.1Zm7.3-33.1h16.6l18.1 33.1h-17L471 375.5Zm66.6 34.2q-8.4 0-14.5-3.4-6-3.5-9.3-9.8-3.3-6.3-3.3-14.9 0-8.4 3.3-14.8 3.3-6.3 9.2-9.9 6-3.5 14-3.5 5.4 0 10.1 1.7 4.6 1.7 8.1 5.2 3.5 3.4 5.5 8.6 1.9 5.2 1.9 12.2v4.1h-46v-9.4h31.8q0-3.2-1.4-5.7-1.4-2.6-4-4-2.5-1.4-5.8-1.4-3.4 0-6 1.5-2.7 1.6-4.2 4.3-1.5 2.6-1.5 5.8v9q0 4 1.5 7 1.5 2.9 4.3 4.5 2.7 1.6 6.5 1.6 2.6 0 4.7-.7t3.5-2.1q1.5-1.5 2.3-3.5l14 .9q-1.1 5-4.3 8.8-3.3 3.7-8.5 5.8-5.2 2.1-11.9 2.1Zm59.5 0q-8.3 0-14.4-3.6-6-3.5-9.2-9.9-3.2-6.4-3.2-14.6 0-8.4 3.3-14.8 3.2-6.3 9.2-9.9 6-3.5 14.3-3.5 7.1 0 12.5 2.6 5.3 2.6 8.5 7.2 3.1 4.7 3.4 11h-14.3q-.6-4-3.1-6.5-2.6-2.5-6.8-2.5-3.5 0-6.1 1.9-2.6 1.9-4.1 5.5-1.4 3.6-1.4 8.8 0 5.2 1.4 8.8 1.5 3.7 4.1 5.6 2.6 1.9 6.1 1.9 2.6 0 4.7-1 2.1-1.1 3.4-3.2 1.4-2 1.8-4.9h14.3q-.3 6.3-3.4 11-3 4.8-8.3 7.4-5.4 2.7-12.7 2.7Zm69.1-24.3v-31.3h15.1v54.5h-14.5v-9.9h-.5q-1.9 4.8-6.2 7.7-4.3 2.9-10.4 2.9-5.5 0-9.6-2.5-4.2-2.4-6.5-7t-2.4-11v-34.7h15.2v32q0 4.8 2.6 7.6 2.5 2.8 6.8 2.8 2.7 0 5.1-1.2 2.4-1.3 3.9-3.8 1.5-2.4 1.4-6.1Zm42.3 23.2h-15.1v-54.5h14.7v9.5h.6q1.4-5.1 5-7.7 3.5-2.6 8.1-2.6 1.1 0 2.4.1 1.3.2 2.3.4v13.5q-1-.4-2.9-.6-1.9-.3-3.5-.3-3.3 0-5.9 1.5-2.6 1.4-4.1 4-1.6 2.5-1.6 5.9v30.8Zm71.2-39-13.9.9q-.3-1.8-1.5-3.2-1.2-1.5-3.1-2.3-1.9-.9-4.5-.9-3.5 0-5.9 1.5-2.4 1.4-2.4 3.9 0 1.9 1.5 3.3 1.6 1.3 5.4 2.2l9.9 1.9q7.9 1.7 11.8 5.3 3.9 3.6 3.9 9.5 0 5.4-3.1 9.4-3.2 4.1-8.6 6.3-5.5 2.3-12.6 2.3-10.8 0-17.2-4.5-6.4-4.6-7.5-12.4l14.9-.8q.6 3.3 3.2 5.1 2.6 1.7 6.7 1.7 3.9 0 6.4-1.6 2.4-1.5 2.4-4 0-2-1.7-3.3-1.7-1.4-5.3-2.1l-9.4-1.9q-8-1.6-11.9-5.5-3.9-3.9-3.9-10.1 0-5.2 2.9-9t8.1-5.9q5.2-2 12.2-2 10.3 0 16.2 4.3 6 4.4 7 11.9Zm25.9 39h-15.1v-54.5h15.1v54.5Zm-7.5-61.6q-3.4 0-5.8-2.2-2.4-2.3-2.4-5.4 0-3.1 2.4-5.4 2.4-2.3 5.8-2.3 3.3 0 5.7 2.3 2.4 2.3 2.4 5.4 0 3.1-2.4 5.4-2.4 2.2-5.7 2.2Zm54.4 7.1h16l-19 54.5h-17.1l-19.1-54.5h16l11.4 39h.5l11.3-39Zm46.8 55.6q-8.4 0-14.5-3.4-6-3.5-9.3-9.8-3.2-6.3-3.2-14.9 0-8.4 3.2-14.8 3.3-6.3 9.2-9.9 6-3.5 14-3.5 5.4 0 10.1 1.7 4.6 1.7 8.1 5.2 3.5 3.4 5.5 8.6 2 5.2 2 12.2v4.1h-46.1v-9.4h31.8q0-3.2-1.4-5.7-1.4-2.6-3.9-4t-5.8-1.4q-3.5 0-6.1 1.5-2.7 1.6-4.2 4.3-1.5 2.6-1.5 5.8v9q0 4 1.5 7 1.5 2.9 4.3 4.5t6.6 1.6q2.5 0 4.6-.7 2.1-.7 3.6-2.1 1.5-1.5 2.2-3.5l14 .9q-1 5-4.3 8.8-3.3 3.7-8.5 5.8-5.1 2.1-11.9 2.1Zm34.9-73.8h15.2v72.7h-15.2v-72.7Zm36.6 93.2q-2.9 0-5.4-.5-2.5-.4-4.2-1.1l3.5-11.3q2.6.8 4.8.9 2.1.1 3.7-1 1.6-1 2.6-3.6l.9-2.3-19.6-56.1H973l11.3 40h.6l11.4-40h16l-21.2 60.4q-1.6 4.4-4.2 7.7t-6.5 5.1q-4 1.8-9.6 1.8Z"/>
</svg>

