<svg xmlns="http://www.w3.org/2000/svg" xmlns:xlink="http://www.w3.org/1999/xlink" width="535.151" height="464.149" viewBox="0 0 501.704 435.14" xmlns:v="https://vecta.io/nano">
<defs>
<path id="D" d="M153.065 222.939l122.197 211.675-56.157.527-32.624-56.869-32.856 56.565-27.902-.011-14.291-24.69 46.81-80.49-33.229-57.826z"/>
</defs>
<g fill-rule="evenodd">
<use xlink:href="#D" fill="#ddc7a1"/>
<path d="M197.17 135.748L74.953 347.411l-28.535-48.37 32.938-56.687-65.415-.172L0 218.012l14.236-24.721 93.112.294 33.464-57.69zm9.376 169.2l244.414.012-27.622 48.897-65.562-.182 32.559 56.737-13.961 24.159-28.527.032-46.301-80.784-66.693-.135zm142.258-92.746L226.607.527 282.764 0l32.624 56.869L348.244.304l27.902.011 14.291 24.69-46.81 80.49 33.229 57.826z" fill="#ddc7a1"/>
<g fill="#ddc7a1">
<use xlink:href="#D"/>
<path d="M294.997 129.658l-244.414-.012L78.205 80.75l65.562.182-32.559-56.737L125.17.036l28.527-.032 46.301 80.784 66.693.135zm9.536 169.691L426.75 87.685l28.535 48.37-32.938 56.688 65.415.172 13.941 24.17-14.236 24.721-93.112-.294-33.464 57.69z"/>
</g>
</g>
<g transform="translate(-156.339 933.191)">
<use id="E" xlink:href="#D" x="156.484" y="-933.327" opacity="1" fill="url(#B)" fill-opacity="1" fill-rule="evenodd" stroke="none"/>
<use transform="rotate(60 407.112 -715.787)" xlink:href="#E"/>
<use transform="rotate(300 407.312 -715.7)" xlink:href="#E"/>
<use transform="rotate(180 407.419 -715.756)" xlink:href="#E"/>
<use id="F" xlink:href="#D" x="156.484" y="-933.327" opacity="1" fill="url(#C)" fill-opacity="1" fill-rule="evenodd" stroke="none" text-rendering="auto"/>
<use transform="rotate(120 407.339 -716.084)" xlink:href="#F"/>
<use transform="rotate(240 407.288 -715.87)" xlink:href="#F"/>
</g>
</svg>

