<svg xmlns="http://www.w3.org/2000/svg" xmlns:xlink="http://www.w3.org/1999/xlink" width="535.151" height="464.149" viewBox="0 0 501.704 435.14" xmlns:v="https://vecta.io/nano">
<g fill="#ddc7a1">
<path d="M197.17 135.748L74.953 347.411l-28.535-48.37 32.938-56.687-65.415-.172L0 218.012l14.236-24.721 93.112.294 33.464-57.69zm9.376 169.2l244.414.012-27.622 48.897-65.562-.182 32.559 56.737-13.961 24.159-28.527.032-46.301-80.784-66.693-.135zm142.258-92.746L226.607.527 282.764 0l32.624 56.869L348.244.304l27.902.011 14.291 24.69-46.81 80.49 33.229 57.826z"/>
<path d="M294.997 129.658l-244.414-.012L78.205 80.75l65.562.182-32.559-56.737L125.17.036l28.527-.032 46.301 80.784 66.693.135zm9.536 169.691L426.75 87.685l28.535 48.37-32.938 56.688 65.415.172 13.941 24.17-14.236 24.721-93.112-.294-33.464 57.69z"/>
</g>
</svg>

