<svg width="1200" height="630" viewBox="0 0 1200 630" xmlns="http://www.w3.org/2000/svg"><rect x="0" y="0" width="133" height="19" fill="red"/><path fill="white" d=" M24.5 18.4L24.5 18.4Q23.3 18.4 22.5 18.1Q21.7 17.8 21.2 17.2Q20.7 16.7 20.5 16.0L20.5 16.0L22.8 15.7Q22.9 16.0 23.1 16.2Q23.3 16.4 23.7 16.6Q24.0 16.7 24.6 16.7L24.6 16.7Q25.4 16.7 25.9 16.3Q26.4 15.9 26.4 15.0L26.4 15.0L26.4 13.4L26.3 13.4Q26.1 13.8 25.8 14.1Q25.5 14.4 25.0 14.6Q24.5 14.9 23.8 14.9L23.8 14.9Q22.8 14.9 22.0 14.4Q21.2 13.9 20.7 13.0Q20.3 12.0 20.3 10.6L20.3 10.6Q20.3 9.1 20.7 8.1Q21.2 7.1 22.0 6.6Q22.8 6.1 23.8 6.1L23.8 6.1Q24.5 6.1 25.0 6.4Q25.5 6.6 25.8 7.0Q26.1 7.4 26.3 7.7L26.3 7.7L26.4 7.7L26.4 6.2L28.8 6.2L28.8 15.1Q28.8 16.2 28.2 16.9Q27.7 17.7 26.7 18.1Q25.8 18.4 24.5 18.4ZM24.6 13.0L24.6 13.0Q25.2 13.0 25.6 12.7Q26.0 12.4 26.2 11.9Q26.4 11.4 26.4 10.6L26.4 10.6Q26.4 9.8 26.2 9.3Q26.0 8.7 25.6 8.4Q25.2 8.1 24.6 8.1L24.6 8.1Q24.0 8.1 23.6 8.4Q23.2 8.7 22.9 9.3Q22.7 9.8 22.7 10.6L22.7 10.6Q22.7 11.3 22.9 11.9Q23.2 12.4 23.6 12.7Q24.0 13.0 24.6 13.0ZM33.1 9.9L33.1 9.9L33.1 15.0L30.7 15.0L30.7 3.3L33.1 3.3L33.1 7.8L33.2 7.8Q33.5 7.0 34.1 6.6Q34.8 6.1 35.8 6.1L35.8 6.1Q36.7 6.1 37.4 6.5Q38.0 6.9 38.4 7.7Q38.8 8.4 38.8 9.4L38.8 9.4L38.8 15.0L36.4 15.0L36.4 9.9Q36.4 9.0 36.0 8.6Q35.6 8.1 34.8 8.1L34.8 8.1Q34.3 8.1 33.9 8.4Q33.6 8.6 33.4 9.0Q33.1 9.4 33.1 9.9Z M46.8 15.0L44.4 15.0L44.4 6.2L46.8 6.2L46.8 7.8L46.9 7.8Q47.1 7.0 47.7 6.5Q48.2 6.1 48.9 6.1L48.9 6.1Q49.1 6.1 49.3 6.1Q49.6 6.2 49.7 6.2L49.7 6.2L49.7 8.4Q49.5 8.3 49.2 8.3Q48.9 8.2 48.7 8.2L48.7 8.2Q48.2 8.2 47.7 8.5Q47.3 8.7 47.1 9.1Q46.8 9.5 46.8 10.0L46.8 10.0L46.8 15.0ZM54.5 15.1L54.5 15.1Q53.2 15.1 52.2 14.6Q51.2 14.0 50.7 13.0Q50.2 12.0 50.2 10.7L50.2 10.7Q50.2 9.3 50.7 8.3Q51.2 7.3 52.2 6.7Q53.1 6.1 54.4 6.1L54.4 6.1Q55.3 6.1 56.0 6.4Q56.8 6.7 57.3 7.2Q57.9 7.8 58.2 8.6Q58.5 9.5 58.5 10.6L58.5 10.6L58.5 11.2L51.2 11.2L51.2 9.7L56.3 9.7Q56.3 9.2 56.0 8.8Q55.8 8.4 55.4 8.2Q55.0 7.9 54.5 7.9L54.5 7.9Q53.9 7.9 53.5 8.2Q53.1 8.4 52.8 8.9Q52.6 9.3 52.6 9.8L52.6 9.8L52.6 11.2Q52.6 11.9 52.8 12.4Q53.1 12.8 53.5 13.1Q54.0 13.3 54.6 13.3L54.6 13.3Q55.0 13.3 55.3 13.2Q55.6 13.1 55.9 12.9Q56.1 12.7 56.2 12.3L56.2 12.3L58.5 12.5Q58.3 13.3 57.8 13.9Q57.3 14.5 56.4 14.8Q55.6 15.1 54.5 15.1ZM62.5 18.2L60.1 18.2L60.1 6.2L62.5 6.2L62.5 7.7L62.6 7.7Q62.8 7.4 63.1 7.0Q63.4 6.6 63.9 6.4Q64.4 6.1 65.1 6.1L65.1 6.1Q66.0 6.1 66.8 6.6Q67.7 7.1 68.1 8.1Q68.6 9.1 68.6 10.6L68.6 10.6Q68.6 12.1 68.2 13.1Q67.7 14.1 66.9 14.6Q66.1 15.1 65.1 15.1L65.1 15.1Q64.4 15.1 63.9 14.9Q63.4 14.7 63.1 14.3Q62.8 13.9 62.6 13.6L62.6 13.6L62.5 13.6L62.5 18.2ZM62.5 10.6L62.5 10.6Q62.5 11.4 62.7 12.0Q62.9 12.5 63.3 12.9Q63.7 13.2 64.3 13.2L64.3 13.2Q64.9 13.2 65.3 12.9Q65.7 12.5 65.9 12.0Q66.1 11.4 66.1 10.6L66.1 10.6Q66.1 9.9 65.9 9.3Q65.7 8.7 65.3 8.4Q64.9 8.1 64.3 8.1L64.3 8.1Q63.7 8.1 63.3 8.4Q62.9 8.7 62.7 9.3Q62.5 9.8 62.5 10.6ZM74.2 15.1L74.2 15.1Q72.8 15.1 71.9 14.6Q70.9 14.0 70.4 13.0Q69.9 12.0 69.9 10.6L69.9 10.6Q69.9 9.3 70.4 8.3Q70.9 7.3 71.9 6.7Q72.8 6.1 74.2 6.1L74.2 6.1Q75.5 6.1 76.5 6.7Q77.4 7.3 77.9 8.3Q78.5 9.3 78.5 10.6L78.5 10.6Q78.5 12.0 77.9 13.0Q77.4 14.0 76.5 14.6Q75.5 15.1 74.2 15.1ZM74.2 13.3L74.2 13.3Q74.8 13.3 75.2 12.9Q75.6 12.6 75.8 12.0Q76.0 11.4 76.0 10.6L76.0 10.6Q76.0 9.9 75.8 9.3Q75.6 8.7 75.2 8.3Q74.8 8.0 74.2 8.0L74.2 8.0Q73.6 8.0 73.2 8.3Q72.8 8.7 72.5 9.3Q72.3 9.9 72.3 10.6L72.3 10.6Q72.3 11.4 72.5 12.0Q72.8 12.6 73.2 12.9Q73.6 13.3 74.2 13.3Z M87.7 15.1L87.7 15.1Q86.4 15.1 85.4 14.6Q84.4 14.0 83.9 13.0Q83.4 12.0 83.4 10.6L83.4 10.6Q83.4 9.3 83.9 8.3Q84.4 7.3 85.4 6.7Q86.4 6.1 87.7 6.1L87.7 6.1Q88.8 6.1 89.7 6.5Q90.5 7.0 91.0 7.7Q91.5 8.5 91.6 9.5L91.6 9.5L89.3 9.5Q89.2 8.8 88.8 8.4Q88.4 8.0 87.7 8.0L87.7 8.0Q87.2 8.0 86.7 8.3Q86.3 8.6 86.1 9.2Q85.9 9.8 85.9 10.6L85.9 10.6Q85.9 11.4 86.1 12.0Q86.3 12.6 86.7 12.9Q87.2 13.2 87.7 13.2L87.7 13.2Q88.1 13.2 88.5 13.1Q88.8 12.9 89.0 12.6Q89.2 12.2 89.3 11.8L89.3 11.8L91.6 11.8Q91.5 12.8 91.1 13.5Q90.6 14.3 89.7 14.7Q88.9 15.1 87.7 15.1ZM95.6 15.0L93.2 15.0L93.2 6.2L95.5 6.2L95.5 7.8L95.6 7.8Q95.8 7.0 96.4 6.5Q97.0 6.1 97.7 6.1L97.7 6.1Q97.9 6.1 98.1 6.1Q98.3 6.2 98.4 6.2L98.4 6.2L98.4 8.4Q98.3 8.3 98.0 8.3Q97.7 8.2 97.4 8.2L97.4 8.2Q96.9 8.2 96.5 8.5Q96.1 8.7 95.8 9.1Q95.6 9.5 95.6 10.0L95.6 10.0L95.6 15.0ZM103.3 15.1L103.3 15.1Q101.9 15.1 100.9 14.6Q100.0 14.0 99.5 13.0Q98.9 12.0 98.9 10.7L98.9 10.7Q98.9 9.3 99.5 8.3Q100.0 7.3 100.9 6.7Q101.9 6.1 103.2 6.1L103.2 6.1Q104.0 6.1 104.8 6.4Q105.5 6.7 106.1 7.2Q106.6 7.8 107.0 8.6Q107.3 9.5 107.3 10.6L107.3 10.6L107.3 11.2L99.9 11.2L99.9 9.7L105.0 9.7Q105.0 9.2 104.8 8.8Q104.5 8.4 104.1 8.2Q103.7 7.9 103.2 7.9L103.2 7.9Q102.7 7.9 102.2 8.2Q101.8 8.4 101.6 8.9Q101.3 9.3 101.3 9.8L101.3 9.8L101.3 11.2Q101.3 11.9 101.6 12.4Q101.8 12.8 102.3 13.1Q102.7 13.3 103.3 13.3L103.3 13.3Q103.7 13.3 104.0 13.2Q104.4 13.1 104.6 12.9Q104.9 12.7 105.0 12.3L105.0 12.3L107.2 12.5Q107.0 13.3 106.5 13.9Q106.0 14.5 105.2 14.8Q104.3 15.1 103.3 15.1ZM111.3 15.1L111.3 15.1Q110.5 15.1 109.8 14.8Q109.2 14.6 108.8 14.0Q108.4 13.4 108.4 12.5L108.4 12.5Q108.4 11.8 108.7 11.3Q109.0 10.8 109.4 10.5Q109.9 10.2 110.5 10.1Q111.1 9.9 111.7 9.9L111.7 9.9Q112.5 9.8 112.9 9.7Q113.4 9.6 113.6 9.5Q113.8 9.3 113.8 9.1L113.8 9.1L113.8 9.0Q113.8 8.5 113.5 8.2Q113.2 7.9 112.5 7.9L112.5 7.9Q111.9 7.9 111.5 8.2Q111.1 8.5 111.0 8.9L111.0 8.9L108.7 8.7Q108.9 7.9 109.4 7.3Q109.9 6.8 110.7 6.5Q111.5 6.1 112.5 6.1L112.5 6.1Q113.3 6.1 113.9 6.3Q114.6 6.5 115.1 6.8Q115.6 7.2 115.9 7.8Q116.3 8.3 116.3 9.1L116.3 9.1L116.3 15.0L114.0 15.0L114.0 13.8L113.9 13.8Q113.7 14.2 113.3 14.5Q113.0 14.8 112.5 15.0Q112.0 15.1 111.3 15.1ZM112.0 13.5L112.0 13.5Q112.6 13.5 113.0 13.3Q113.4 13.0 113.6 12.7Q113.8 12.3 113.8 11.9L113.8 11.9L113.8 10.9Q113.7 11.0 113.5 11.1Q113.3 11.1 113.1 11.2Q112.9 11.2 112.6 11.3Q112.4 11.3 112.2 11.3L112.2 11.3Q111.7 11.4 111.4 11.5Q111.1 11.7 110.9 11.9Q110.8 12.1 110.8 12.5L110.8 12.5Q110.8 13.0 111.1 13.2Q111.5 13.5 112.0 13.5ZM117.5 6.2L122.8 6.2L122.8 8.1L117.5 8.1L117.5 6.2ZM118.7 12.6L118.7 4.2L121.1 4.2L121.1 12.3Q121.1 12.6 121.2 12.8Q121.3 13.0 121.5 13.1Q121.7 13.1 121.9 13.1L121.9 13.1Q122.1 13.1 122.3 13.1Q122.5 13.1 122.6 13.1L122.6 13.1L122.9 14.9Q122.8 14.9 122.4 15.0Q122.1 15.1 121.6 15.1L121.6 15.1Q120.7 15.1 120.1 14.9Q119.4 14.6 119.1 14.0Q118.7 13.5 118.7 12.6L118.7 12.6ZM128.2 15.1L128.2 15.1Q126.9 15.1 125.9 14.6Q124.9 14.0 124.4 13.0Q123.9 12.0 123.9 10.7L123.9 10.7Q123.9 9.3 124.4 8.3Q124.9 7.3 125.9 6.7Q126.9 6.1 128.1 6.1L128.1 6.1Q129 6.1 129.7 6.4Q130.5 6.7 131.1 7.2Q131.6 7.8 131.9 8.6Q132.2 9.5 132.2 10.6L132.2 10.6L132.2 11.2L124.9 11.2L124.9 9.7L130.0 9.7Q130.0 9.2 129.7 8.8Q129.5 8.4 129.1 8.2Q128.7 7.9 128.2 7.9L128.2 7.9Q127.6 7.9 127.2 8.2Q126.8 8.4 126.5 8.9Q126.3 9.3 126.3 9.8L126.3 9.8L126.3 11.2Q126.3 11.9 126.5 12.4Q126.8 12.8 127.2 13.1Q127.7 13.3 128.3 13.3L128.3 13.3Q128.7 13.3 129.0 13.2Q129.3 13.1 129.6 12.9Q129.8 12.7 129.9 12.3L129.9 12.3L132.2 12.5Q132.0 13.3 131.5 13.9Q131.0 14.5 130.1 14.8Q129.3 15.1 128.2 15.1Z "/></svg>