<svg xmlns="http://www.w3.org/2000/svg" width="1200" height="630"><path fill="#282828" d="M0 0h1200v630H0z"/><path fill="#d4be98" d="m109 308.3-18.9 50.9H66.6l18.9-51.1L66.6 257h23.5l18.9 51.3Zm96.3 81.1q-10.3 0-17.6-2.8-7.3-2.8-11.7-7.6-4.3-4.9-5.6-10.9l19.6-2.6q.9 2.3 2.8 4.3 2 1.9 5.2 3.2 3.2 1.2 7.8 1.2 6.9 0 11.4-3.4 4.5-3.3 4.5-11.2v-14h-.9q-1.4 3.2-4.1 6.1-2.8 2.8-7.2 4.6-4.4 1.8-10.4 1.8-8.6 0-15.7-4-7-4-11.2-12.3-4.1-8.3-4.1-21 0-12.9 4.2-21.6 4.2-8.7 11.3-13.1 7-4.3 15.4-4.3 6.4 0 10.7 2.2 4.4 2.1 7 5.3 2.7 3.2 4.1 6.3h.8v-12.8h21.1v77.1q0 9.8-4.8 16.3-4.8 6.6-13.2 9.9-8.4 3.3-19.4 3.3Zm.5-47.2q5.1 0 8.6-2.6 3.6-2.6 5.5-7.4 1.9-4.8 1.9-11.5t-1.9-11.6q-1.9-5-5.4-7.7-3.6-2.7-8.7-2.7-5.3 0-8.8 2.8-3.6 2.8-5.5 7.8-1.8 4.9-1.8 11.4 0 6.7 1.9 11.4 1.8 4.8 5.4 7.5 3.5 2.6 8.8 2.6Zm74.9-27.2v44.2h-21.1V257.4h20.5v38.9h.9q2.6-6.8 8.4-10.6 5.8-3.9 14.5-3.9 7.9 0 13.9 3.5 5.9 3.4 9.2 9.9 3.3 6.4 3.3 15.3v48.7h-21.2v-44.9q0-7-3.6-11-3.6-3.9-10-3.9-4.4 0-7.7 1.8-3.3 1.9-5.1 5.4-1.9 3.5-2 8.4Zm119.9 44.2h-21.2v-76.4H400v13.3h.8q2-7.1 7-10.7 4.9-3.7 11.3-3.7 1.6 0 3.4.2 1.9.2 3.3.6v18.7q-1.5-.4-4.2-.7-2.6-.4-4.8-.4-4.7 0-8.3 2-3.7 2-5.8 5.6-2.1 3.6-2.1 8.3v43.2Zm67.3 1.5q-11.8 0-20.3-4.8t-13-13.7q-4.6-8.8-4.6-20.9 0-11.7 4.6-20.6 4.5-8.9 12.9-13.9 8.3-5 19.5-5 7.6 0 14.1 2.4 6.6 2.4 11.5 7.3 4.9 4.8 7.6 12.1 2.7 7.2 2.7 17v5.8h-64.5v-13.1H483q0-4.6-2-8.1-2-3.6-5.5-5.6-3.5-2-8.1-2-4.9 0-8.6 2.2-3.7 2.2-5.7 5.9-2.1 3.8-2.2 8.3v12.5q0 5.6 2.1 9.7 2.1 4.2 6 6.4 3.9 2.3 9.2 2.3 3.5 0 6.5-1 2.9-1 5-3t3.2-4.9l19.6 1.3q-1.5 7.1-6.1 12.3-4.6 5.2-11.9 8.2-7.2 2.9-16.6 2.9Zm70 27.1h-21.2v-105h20.9v12.8h1q1.4-3.1 4-6.3 2.7-3.2 7-5.3 4.3-2.2 10.7-2.2 8.3 0 15.4 4.4 7.1 4.3 11.3 13 4.2 8.8 4.2 21.9 0 12.8-4.1 21.5-4.1 8.8-11.1 13.3-7.1 4.5-15.8 4.5-6.1 0-10.4-2-4.3-2.1-7.1-5.2-2.7-3.1-4.1-6.3h-.7v40.9Zm-.4-66.8q0 6.8 1.9 11.9 1.9 5 5.4 7.8 3.6 2.9 8.7 2.9 5.2 0 8.8-2.9 3.6-2.9 5.4-8 1.9-5.1 1.9-11.7t-1.9-11.6q-1.8-5.1-5.4-7.9-3.5-2.8-8.8-2.8-5.1 0-8.7 2.7-3.5 2.7-5.4 7.8-1.9 5-1.9 11.8Zm102.3 39.7q-11.6 0-20-5-8.5-4.9-13-13.8-4.6-8.9-4.6-20.6 0-11.8 4.6-20.7 4.5-8.9 13-13.8 8.4-5 20-5t20 5q8.4 4.9 13 13.8t4.6 20.7q0 11.7-4.6 20.6-4.6 8.9-13 13.8-8.4 5-20 5Zm.1-16.4q5.3 0 8.8-3.1 3.5-3 5.3-8.2 1.8-5.2 1.8-11.9 0-6.6-1.8-11.8-1.8-5.3-5.3-8.3-3.5-3-8.8-3-5.3 0-8.9 3-3.6 3-5.5 8.3-1.8 5.2-1.8 11.8 0 6.7 1.8 11.9 1.9 5.2 5.5 8.2 3.6 3.1 8.9 3.1Zm118.3 16.4q-11.8 0-20.2-5-8.4-5-12.9-13.9t-4.5-20.5q0-11.7 4.5-20.6 4.6-8.9 13-13.9t20-5q10 0 17.5 3.6 7.5 3.7 11.8 10.2 4.4 6.6 4.9 15.4h-20q-.9-5.7-4.5-9.2-3.6-3.5-9.4-3.5-4.9 0-8.6 2.7-3.6 2.6-5.7 7.7-2 5.1-2 12.3 0 7.3 2 12.4 2 5.1 5.7 7.8t8.6 2.7q3.6 0 6.5-1.5 3-1.5 4.9-4.3 1.9-2.9 2.5-6.9h20q-.5 8.7-4.8 15.4-4.2 6.6-11.7 10.3-7.4 3.8-17.6 3.8Zm68.9-1.5h-21.2v-76.4h20.5v13.3h.8q2.1-7.1 7-10.7 4.9-3.7 11.4-3.7 1.6 0 3.4.2 1.8.2 3.2.6v18.7q-1.5-.4-4.1-.7-2.6-.4-4.8-.4-4.7 0-8.4 2-3.6 2-5.7 5.6-2.1 3.6-2.1 8.3v43.2Zm67.2 1.5q-11.8 0-20.2-4.8-8.5-4.8-13.1-13.7-4.6-8.8-4.6-20.9 0-11.7 4.6-20.6 4.6-8.9 12.9-13.9 8.4-5 19.6-5 7.5 0 14.1 2.4 6.5 2.4 11.4 7.3 4.9 4.8 7.6 12.1 2.8 7.2 2.8 17v5.8h-64.5v-13.1h44.5q0-4.6-1.9-8.1-2-3.6-5.5-5.6-3.5-2-8.2-2-4.8 0-8.5 2.2t-5.8 5.9q-2.1 3.8-2.1 8.3v12.5q0 5.6 2.1 9.7 2.1 4.2 6 6.4 3.9 2.3 9.2 2.3 3.5 0 6.4-1 3-1 5.1-3 2.1-2 3.1-4.9l19.6 1.3q-1.5 7.1-6.1 12.3-4.6 5.2-11.8 8.2-7.2 2.9-16.7 2.9Zm70.7-.1q-7.3 0-13-2.6-5.8-2.5-9.1-7.6-3.3-5-3.3-12.6 0-6.3 2.4-10.6 2.3-4.4 6.3-7 4.1-2.6 9.2-4 5.1-1.3 10.8-1.9 6.7-.7 10.7-1.3 4.1-.6 6-1.9 1.8-1.2 1.8-3.6v-.3q0-4.8-3-7.3-2.9-2.6-8.3-2.6-5.7 0-9.1 2.5-3.4 2.5-4.5 6.3l-19.6-1.6q1.5-7 5.9-12.1 4.3-5.1 11.3-7.8 6.9-2.8 16.1-2.8 6.3 0 12.2 1.5 5.8 1.5 10.4 4.6 4.5 3.2 7.1 8.1 2.7 4.9 2.7 11.7v51.5h-20.1v-10.6h-.6q-1.8 3.6-4.9 6.3-3.1 2.7-7.4 4.2-4.4 1.5-10 1.5Zm6-14.6q4.7 0 8.3-1.9 3.6-1.8 5.6-5 2.1-3.2 2.1-7.2v-8.1q-1 .6-2.8 1.1-1.7.6-3.8 1-2.1.4-4.3.7-2.1.4-3.9.6-3.7.5-6.5 1.7t-4.3 3.2q-1.5 2.1-1.5 5 0 4.4 3.1 6.6 3.2 2.3 8 2.3Zm48.1-63.2h46v15.9h-46v-15.9Zm10.4 55.7v-74h21.2v71.2q0 2.9.9 4.6.9 1.6 2.5 2.2 1.6.7 3.7.7 1.5 0 3-.3t2.3-.4l3.3 15.7q-1.5.5-4.4 1.2-2.9.7-7 .8-7.7.3-13.4-2-5.8-2.4-9-7.3-3.1-4.9-3.1-12.4Zm83.3 22.2q-11.7 0-20.2-4.8t-13.1-13.7q-4.5-8.8-4.5-20.9 0-11.7 4.5-20.6 4.6-8.9 12.9-13.9 8.4-5 19.6-5 7.5 0 14.1 2.4 6.5 2.4 11.4 7.3 4.9 4.8 7.6 12.1 2.8 7.2 2.8 17v5.8h-64.5v-13.1h44.5q0-4.6-1.9-8.1-2-3.6-5.5-5.6-3.5-2-8.2-2-4.8 0-8.5 2.2t-5.8 5.9q-2.1 3.8-2.1 8.3v12.5q0 5.6 2.1 9.7 2.1 4.2 6 6.4 3.9 2.3 9.2 2.3 3.5 0 6.4-1 3-1 5.1-3 2.1-2 3.1-4.9l19.6 1.3q-1.5 7.1-6.1 12.3-4.6 5.2-11.8 8.2-7.2 2.9-16.7 2.9Z"/></svg>